<svg class="icon" style="width: 1em; height: 1em;vertical-align: middle;fill: currentColor;overflow: hidden;" viewBox="0 0 1024 1024" version="1.1" xmlns="http://www.w3.org/2000/svg"><path d="M834.8 448 189.2 448C155.4 448 128 476.6 128 512c0 35.4 27.4 64 61.2 64l645.6 0c33.8 0 61.2-28.6 61.2-64C896 476.6 868.6 448 834.8 448zM834.8 192 189.2 192C155.4 192 128 220.6 128 256c0 35.4 27.4 64 61.2 64l645.6 0c33.8 0 61.2-28.6 61.2-64C896 220.6 868.6 192 834.8 192zM834.8 704 189.2 704C155.4 704 128 732.6 128 768c0 35.4 27.4 64 61.2 64l645.6 0c33.8 0 61.2-28.6 61.2-64C896 732.6 868.6 704 834.8 704z"/></svg>